<svg width="1200" height="600" viewBox="0 0 1200 600" fill="none" xmlns="http://www.w3.org/2000/svg">
  <rect width="1200" height="600" fill="#FCFCFB"/>
  <g transform="translate(504 204) scale(6)">
    <path fill-rule="evenodd" clip-rule="evenodd" d="M13.1817 22.6075C13.1817 24.6974 11.4815 26.3976 9.39167 26.3976C7.30185 26.3976 5.60165 24.6974 5.60165 22.6075C5.60165 20.5177 7.30185 18.8175 9.39167 18.8175H13.1817V22.6075ZM32 5.60263V0H13.1817V13.2147H9.39173C8.12497 13.2147 6.8946 13.4634 5.73482 13.954C4.61605 14.4272 3.61182 15.1041 2.75014 15.9658C1.88842 16.8275 1.21156 17.8316 0.738368 18.9505C0.247808 20.1102 -0.000915527 21.3406 -0.000915527 22.6074C-0.000915527 23.8741 0.247808 25.1045 0.738368 26.2643C1.21156 27.3831 1.88842 28.3873 2.75014 29.2489C3.61182 30.1107 4.61605 30.7875 5.73482 31.2607C6.8946 31.7513 8.12497 32 9.39173 32C10.6585 32 11.8889 31.7513 13.0486 31.2607C14.1674 30.7875 15.1716 30.1107 16.0333 29.2489C16.895 28.3873 17.5719 27.3831 18.0451 26.2643C18.5356 25.1045 18.7844 23.8741 18.7844 22.6074V18.7853H32V13.1827H18.7844V5.60263H32Z" fill="#FF7F83"/>
  </g>
</svg>
